<svg xmlns="http://www.w3.org/2000/svg" width="1200" height="320" viewBox="0 0 1200 320" role="img" aria-labelledby="title desc">
<title id="title">LogFable</title><desc id="desc">Generate complete cyber incidents without launching a single attack.</desc>
<defs><linearGradient id="g" x1="0" x2="1"><stop offset="0" stop-color="#0b1020"/><stop offset="1" stop-color="#13213d"/></linearGradient><linearGradient id="a" x1="0" x2="1"><stop offset="0" stop-color="#38bdf8"/><stop offset="1" stop-color="#a78bfa"/></linearGradient></defs>
<rect width="1200" height="320" rx="28" fill="url(#g)"/><g opacity=".18" stroke="#7dd3fc"><path d="M60 255 C210 80 330 280 480 125 S770 245 930 80 1140 160 1180 120" fill="none" stroke-width="2"/><path d="M60 230 C240 140 330 215 520 95 S820 235 1140 65" fill="none"/></g>
<g transform="translate(72 62)"><rect width="178" height="178" rx="36" fill="#0f172a" stroke="#334155"/><path d="M38 45h102M38 89h102M38 133h102" stroke="url(#a)" stroke-width="11" stroke-linecap="round"/><circle cx="62" cy="45" r="10" fill="#0b1020" stroke="#7dd3fc" stroke-width="5"/><circle cx="115" cy="89" r="10" fill="#0b1020" stroke="#a78bfa" stroke-width="5"/><circle cx="82" cy="133" r="10" fill="#0b1020" stroke="#7dd3fc" stroke-width="5"/></g>
<text x="292" y="132" fill="#f8fafc" font-family="system-ui,Segoe UI,sans-serif" font-size="74" font-weight="800">LogFable</text><text x="295" y="184" fill="#cbd5e1" font-family="system-ui,Segoe UI,sans-serif" font-size="28">Generate complete cyber incidents without launching a single attack.</text><text x="295" y="230" fill="#7dd3fc" font-family="ui-monospace,Consolas,monospace" font-size="19">scenario-as-code · deterministic telemetry · ATT&amp;CK · D3FEND · detection benchmarking</text>
<text x="1180" y="286" text-anchor="end" fill="#94a3b8" font-family="system-ui,Segoe UI,sans-serif" font-size="16">© 2026 Taher Amine ELHOUARI · taheramine.org</text>
</svg>
